<svg width="147" height="37" viewBox="0 0 147 37" fill="none" xmlns="http://www.w3.org/2000/svg">
<path d="M43.42 20.62C43.42 19.14 43.8533 17.8067 44.72 16.62C45.6 15.4333 46.7933 14.5067 48.3 13.84C49.82 13.16 51.5 12.82 53.34 12.82C54.9933 12.82 56.4867 13.0867 57.82 13.62C59.1533 14.14 60.2467 14.88 61.1 15.84C61.9533 16.7867 62.52 17.9 62.8 19.18H57.68C57.48 18.6467 57.14 18.1867 56.66 17.8C56.1933 17.4 55.6667 17.1 55.08 16.9C54.4933 16.7 53.92 16.6 53.36 16.6C52.5733 16.6 51.8067 16.76 51.06 17.08C50.3267 17.4 49.7267 17.8667 49.26 18.48C48.8067 19.08 48.58 19.7933 48.58 20.62C48.58 21.4467 48.8067 22.1667 49.26 22.78C49.7133 23.38 50.3 23.84 51.02 24.16C51.7533 24.4667 52.5333 24.62 53.36 24.62C54.28 24.62 55.1267 24.4 55.9 23.96C56.6867 23.52 57.2667 22.8933 57.64 22.08H62.78C62.4867 23.3467 61.9133 24.46 61.06 25.42C60.2067 26.3667 59.12 27.1 57.8 27.62C56.48 28.14 54.9933 28.4 53.34 28.4C51.5133 28.4 49.84 28.06 48.32 27.38C46.8133 26.7 45.62 25.7667 44.74 24.58C43.86 23.3933 43.42 22.0733 43.42 20.62ZM78.7748 23H68.1148C68.2082 23.84 68.5215 24.5333 69.0548 25.08C69.6015 25.6133 70.3415 25.88 71.2748 25.88C72.0348 25.88 72.7082 25.7 73.2948 25.34C73.8948 24.9667 74.1948 24.4 74.1948 23.64H78.7748C78.7748 25.1867 78.1082 26.3667 76.7748 27.18C75.4548 27.9933 73.6148 28.4 71.2548 28.4C69.8015 28.4 68.4815 28.1533 67.2948 27.66C66.1082 27.1667 65.1682 26.4733 64.4748 25.58C63.7815 24.6733 63.4348 23.64 63.4348 22.48C63.4348 21.3067 63.7748 20.2733 64.4548 19.38C65.1482 18.4733 66.0882 17.78 67.2748 17.3C68.4748 16.8067 69.8015 16.56 71.2548 16.56C72.7482 16.56 74.0548 16.8 75.1748 17.28C76.3082 17.76 77.1882 18.44 77.8148 19.32C78.4415 20.1867 78.7615 21.2067 78.7748 22.38V22.48H78.8148H78.7748V23ZM71.2548 19C70.3748 19 69.7015 19.1867 69.2348 19.56C68.7682 19.9333 68.4482 20.4533 68.2748 21.12H74.0748C73.9282 20.4533 73.6348 19.9333 73.1948 19.56C72.7548 19.1867 72.1082 19 71.2548 19ZM84.1552 28H79.5552V13.2H84.1552V28ZM100.318 23H89.6578C89.7511 23.84 90.0645 24.5333 90.5978 25.08C91.1445 25.6133 91.8845 25.88 92.8178 25.88C93.5778 25.88 94.2511 25.7 94.8378 25.34C95.4378 24.9667 95.7378 24.4 95.7378 23.64H100.318C100.318 25.1867 99.6511 26.3667 98.3178 27.18C96.9978 27.9933 95.1578 28.4 92.7978 28.4C91.3445 28.4 90.0245 28.1533 88.8378 27.66C87.6511 27.1667 86.7111 26.4733 86.0178 25.58C85.3245 24.6733 84.9778 23.64 84.9778 22.48C84.9778 21.3067 85.3178 20.2733 85.9978 19.38C86.6911 18.4733 87.6311 17.78 88.8178 17.3C90.0178 16.8067 91.3445 16.56 92.7978 16.56C94.2911 16.56 95.5978 16.8 96.7178 17.28C97.8511 17.76 98.7311 18.44 99.3578 19.32C99.9845 20.1867 100.304 21.2067 100.318 22.38V22.48H100.358H100.318V23ZM92.7978 19C91.9178 19 91.2445 19.1867 90.7778 19.56C90.3111 19.9333 89.9911 20.4533 89.8178 21.12H95.6178C95.4711 20.4533 95.1778 19.9333 94.7378 19.56C94.2978 19.1867 93.6511 19 92.7978 19ZM108.278 21.52C108.665 21.52 108.958 21.5133 109.158 21.5L110.298 21.48C111.871 21.48 113.145 21.6867 114.118 22.1C115.105 22.5 115.598 23.3067 115.598 24.52C115.598 26.0933 114.865 27.1467 113.398 27.68C111.945 28.2 110.278 28.46 108.398 28.46C106.531 28.46 104.818 28.1867 103.258 27.64C101.711 27.08 100.938 26.0133 100.938 24.44H105.578C105.578 25.0667 105.851 25.4867 106.398 25.7C106.945 25.9 107.611 26 108.398 26C109.291 26 109.951 25.8933 110.378 25.68C110.818 25.4533 111.038 25.0933 111.038 24.6C111.038 24.16 110.785 23.8867 110.278 23.78C109.771 23.66 109.131 23.6 108.358 23.6H107.658C106.445 23.6 105.365 23.54 104.418 23.42C103.485 23.2867 102.671 22.98 101.978 22.5C101.285 22.02 100.938 21.3 100.938 20.34C100.938 18.82 101.685 17.8267 103.178 17.36C104.685 16.8933 106.418 16.66 108.378 16.66C110.231 16.66 111.898 16.9333 113.378 17.48C114.858 18.0267 115.598 19.0867 115.598 20.66L110.998 20.64C110.998 19.96 110.651 19.54 109.958 19.38C109.265 19.22 108.718 19.14 108.318 19.14C107.705 19.14 107.091 19.2133 106.478 19.36C105.878 19.4933 105.578 19.8 105.578 20.28C105.578 21.08 106.478 21.4933 108.278 21.52ZM123.013 17.1H125.093V20.24H123.013V28H118.413V20.24H116.233V17.1H118.413V14.74L123.013 12.88V17.1ZM130.659 13.2H126.059V16.22H130.659V13.2ZM130.659 28H126.059V16.8H130.659V28ZM138.983 16.62C140.89 16.62 142.603 16.94 144.123 17.58C145.643 18.22 146.403 19.3467 146.403 20.96V28H142.043L141.703 26.58V26.48C141.37 27.08 140.663 27.52 139.583 27.8C138.516 28.08 137.35 28.22 136.083 28.22C135.07 28.22 134.056 28 133.043 27.56C132.03 27.1067 131.523 26.1667 131.523 24.74C131.523 22.4867 132.996 21.36 135.943 21.36C137.836 21.36 139.156 21.3467 139.903 21.32C140.65 21.28 141.143 21.2133 141.383 21.12C141.623 21.0133 141.75 20.8267 141.763 20.56V20.3C141.75 19.86 141.456 19.54 140.883 19.34C140.323 19.1267 139.683 19.02 138.963 19.02C138.216 19.0333 137.576 19.1733 137.043 19.44C136.523 19.7067 136.263 20.1133 136.263 20.66H131.643C131.643 19.6467 132.043 18.84 132.843 18.24C133.643 17.6267 134.596 17.2067 135.703 16.98C136.823 16.74 137.916 16.62 138.983 16.62ZM138.683 25.3C139.67 25.3 140.416 25.08 140.923 24.64C141.43 24.2 141.703 23.64 141.743 22.96V22.68C141.236 22.8933 140.43 23 139.323 23C138.176 23 137.37 23.08 136.903 23.24C136.45 23.4 136.216 23.6933 136.203 24.12C136.243 24.52 136.45 24.82 136.823 25.02C137.21 25.2067 137.83 25.3 138.683 25.3Z" fill="white"/>
<path fill-rule="evenodd" clip-rule="evenodd" d="M14.4477 7.54596L7.06711 15.1234C6.91625 15.2783 6.76447 15.4336 6.61215 15.5895C3.55073 18.7224 0.275948 22.0736 0.0181601 26.4116C-0.128295 28.8762 0.585452 31.5563 3.09642 33.8161C4.72274 35.2798 6.39153 36.1128 7.98299 36.5216C13.4018 37.9137 18.0709 33.2952 22.0479 29.36L31.4747 20.0324L35.6909 15.8162C36.2855 15.1676 37.7837 13.4594 36.4864 12.3243C35.4485 11.4162 34.2315 12.3568 33.9071 12.7351L29.0423 17.7621C28.9392 17.8468 28.864 17.91 28.8127 17.954C29.2772 17.5246 31.3588 15.4379 29.9999 14.2702C28.7026 13.1555 27.2431 14.7567 26.2855 15.8162C25.9376 16.2012 24.6486 17.5135 23.691 18.4108C21.9604 20.0324 19.4594 18.1621 21.081 16.054L25.6369 11.1135C25.6774 11.0676 25.7218 11.018 25.7692 10.9651C26.4794 10.1722 27.8513 8.64056 26.7567 7.54596C25.5891 6.3784 23.8531 7.97839 23.3666 8.68109C22.6639 9.54597 20.9991 10.9514 19.9612 9.65409C18.9234 8.35678 20.0693 7.0595 20.772 6.57302L23.8531 3.49195C24.3396 2.95141 25.118 1.61088 24.3396 0.573042C23.5612 -0.464792 22.0693 0.140611 21.4207 0.573042L14.4477 7.54596ZM10.5 33C14.0899 33 17 30.0899 17 26.5C17 22.9101 14.0899 20 10.5 20C6.91015 20 4 22.9101 4 26.5C4 30.0899 6.91015 33 10.5 33Z" fill="white"/>
<path d="M13.6467 25.9189C14.345 26.2971 14.345 27.2992 13.6467 27.6775L9.69868 29.816C9.03238 30.1769 8.2224 29.6945 8.2224 28.9367L8.2224 24.6597C8.2224 23.9019 9.03238 23.4195 9.69868 23.7804L13.6467 25.9189Z" fill="white"/>
</svg>
