<svg width="19" height="18" viewBox="0 0 19 18" fill="none" xmlns="http://www.w3.org/2000/svg">
<path d="M12 16C11.7348 16 11.4804 16.1054 11.2929 16.2929C11.1054 16.4804 11 16.7348 11 17C11 17.2652 11.1054 17.5196 11.2929 17.7071C11.4804 17.8946 11.7348 18 12 18H17C17.5304 18 18.0391 17.7893 18.4142 17.4142C18.7893 17.0391 19 16.5304 19 16V2C19 1.46957 18.7893 0.960859 18.4142 0.585786C18.0391 0.210714 17.5304 0 17 0H12C11.7348 0 11.4804 0.105357 11.2929 0.292893C11.1054 0.48043 11 0.734784 11 1C11 1.26522 11.1054 1.51957 11.2929 1.70711C11.4804 1.89464 11.7348 2 12 2H17V16H12Z" fill="white"/>
<path d="M13.714 9.69999C13.8969 9.51406 13.9996 9.26381 14 9.00299V8.99699C13.9995 8.73277 13.8941 8.47956 13.707 8.29299L9.707 4.29299C9.61475 4.19748 9.50441 4.1213 9.3824 4.06889C9.2604 4.01648 9.12918 3.98889 8.9964 3.98774C8.86362 3.98659 8.73194 4.01189 8.60905 4.06217C8.48615 4.11245 8.3745 4.1867 8.28061 4.28059C8.18671 4.37449 8.11246 4.48614 8.06218 4.60904C8.0119 4.73193 7.9866 4.86361 7.98775 4.99639C7.9889 5.12917 8.01649 5.26039 8.0689 5.38239C8.12131 5.5044 8.19749 5.61474 8.293 5.70699L10.586 7.99999H1C0.734784 7.99999 0.48043 8.10535 0.292893 8.29288C0.105357 8.48042 0 8.73477 0 8.99999C0 9.26521 0.105357 9.51956 0.292893 9.7071C0.48043 9.89463 0.734784 9.99999 1 9.99999H10.586L8.293 12.293C8.19749 12.3852 8.12131 12.4956 8.0689 12.6176C8.01649 12.7396 7.9889 12.8708 7.98775 13.0036C7.9866 13.1364 8.0119 13.268 8.06218 13.3909C8.11246 13.5138 8.18671 13.6255 8.28061 13.7194C8.3745 13.8133 8.48615 13.8875 8.60905 13.9378C8.73194 13.9881 8.86362 14.0134 8.9964 14.0122C9.12918 14.0111 9.2604 13.9835 9.3824 13.9311C9.50441 13.8787 9.61475 13.8025 9.707 13.707L13.707 9.70699L13.714 9.69999Z" fill="white"/>
</svg>
