<svg width="32" height="34" viewBox="0 0 32 34" fill="none" xmlns="http://www.w3.org/2000/svg">
<g clip-path="url(#clip0_49_205)">
<path d="M24.7716 9.14762C26.6396 9.14762 28.4264 9.87619 29.7259 11.0095C30.6193 11.7381 31.9188 11.1714 31.9188 9.95714V2.67143C31.9188 1.21429 30.7817 0 29.2386 0H2.6802C1.21827 0 0 1.21429 0 2.67143V31.4095C0 32.7857 1.21827 34 2.6802 34H29.3198C30.7817 34 32 32.7857 32 31.3286V24.0429C32 22.9095 30.7005 22.2619 29.8071 22.9905C28.4264 24.2048 26.7208 24.8524 24.8528 24.8524C20.5482 24.8524 17.0558 21.2905 17.0558 17C17.0558 12.7095 20.5482 9.14762 24.7716 9.14762Z" fill="#EE5A29"/>
</g>
<defs>
<clipPath id="clip0_49_205">
<rect width="32" height="34" fill="white"/>
</clipPath>
</defs>
</svg>
